<svg xmlns="http://www.w3.org/2000/svg" xmlns:xlink="http://www.w3.org/1999/xlink" width="1920" zoomAndPan="magnify" viewBox="0 0 1440 809.999993" height="1080" preserveAspectRatio="xMidYMid meet" version="1.0"><defs><filter x="0%" y="0%" width="100%" height="100%" id="b235c51724"><feColorMatrix values="0 0 0 0 1 0 0 0 0 1 0 0 0 0 1 0 0 0 1 0" color-interpolation-filters="sRGB"/></filter><linearGradient x1="960" gradientTransform="matrix(0.75, 0, 0, 0.75, 0.00000622222, 0.00002)" y1="0" x2="960" gradientUnits="userSpaceOnUse" y2="1079.999955" id="34ae515280"><stop stop-opacity="1" stop-color="rgb(78.42865%, 65.489197%, 90.979004%)" offset="0"/><stop stop-opacity="1" stop-color="rgb(78.55072%, 65.681458%, 91.033936%)" offset="0.015625"/><stop stop-opacity="1" stop-color="rgb(78.796387%, 66.067505%, 91.143799%)" offset="0.03125"/><stop stop-opacity="1" stop-color="rgb(79.042053%, 66.453552%, 91.255188%)" offset="0.046875"/><stop stop-opacity="1" stop-color="rgb(79.286194%, 66.8396%, 91.365051%)" offset="0.0625"/><stop stop-opacity="1" stop-color="rgb(79.53186%, 67.225647%, 91.474915%)" offset="0.078125"/><stop stop-opacity="1" stop-color="rgb(79.777527%, 67.611694%, 91.586304%)" offset="0.09375"/><stop stop-opacity="1" stop-color="rgb(80.021667%, 67.997742%, 91.696167%)" offset="0.109375"/><stop stop-opacity="1" stop-color="rgb(80.267334%, 68.383789%, 91.80603%)" offset="0.125"/><stop stop-opacity="1" stop-color="rgb(80.513%, 68.769836%, 91.917419%)" offset="0.140625"/><stop stop-opacity="1" stop-color="rgb(80.757141%, 69.155884%, 92.027283%)" offset="0.15625"/><stop stop-opacity="1" stop-color="rgb(81.002808%, 69.541931%, 92.137146%)" offset="0.171875"/><stop stop-opacity="1" stop-color="rgb(81.248474%, 69.927979%, 92.247009%)" offset="0.1875"/><stop stop-opacity="1" stop-color="rgb(81.492615%, 70.314026%, 92.358398%)" offset="0.203125"/><stop stop-opacity="1" stop-color="rgb(81.738281%, 70.700073%, 92.468262%)" offset="0.21875"/><stop stop-opacity="1" stop-color="rgb(81.983948%, 71.086121%, 92.578125%)" offset="0.234375"/><stop stop-opacity="1" stop-color="rgb(82.228088%, 71.473694%, 92.689514%)" offset="0.25"/><stop stop-opacity="1" stop-color="rgb(82.473755%, 71.859741%, 92.799377%)" offset="0.265625"/><stop stop-opacity="1" stop-color="rgb(82.719421%, 72.245789%, 92.909241%)" offset="0.28125"/><stop stop-opacity="1" stop-color="rgb(82.963562%, 72.631836%, 93.019104%)" offset="0.296875"/><stop stop-opacity="1" stop-color="rgb(83.209229%, 73.017883%, 93.130493%)" offset="0.3125"/><stop stop-opacity="1" stop-color="rgb(83.454895%, 73.403931%, 93.240356%)" offset="0.328125"/><stop stop-opacity="1" stop-color="rgb(83.699036%, 73.789978%, 93.35022%)" offset="0.34375"/><stop stop-opacity="1" stop-color="rgb(83.944702%, 74.176025%, 93.461609%)" offset="0.359375"/><stop stop-opacity="1" stop-color="rgb(84.190369%, 74.562073%, 93.571472%)" offset="0.375"/><stop stop-opacity="1" stop-color="rgb(84.434509%, 74.94812%, 93.681335%)" offset="0.390625"/><stop stop-opacity="1" stop-color="rgb(84.680176%, 75.334167%, 93.792725%)" offset="0.40625"/><stop stop-opacity="1" stop-color="rgb(84.925842%, 75.720215%, 93.902588%)" offset="0.421875"/><stop stop-opacity="1" stop-color="rgb(85.169983%, 76.106262%, 94.012451%)" offset="0.4375"/><stop stop-opacity="1" stop-color="rgb(85.415649%, 76.49231%, 94.122314%)" offset="0.453125"/><stop stop-opacity="1" stop-color="rgb(85.661316%, 76.878357%, 94.233704%)" offset="0.46875"/><stop stop-opacity="1" stop-color="rgb(85.905457%, 77.264404%, 94.343567%)" offset="0.484375"/><stop stop-opacity="1" stop-color="rgb(86.151123%, 77.650452%, 94.45343%)" offset="0.5"/><stop stop-opacity="1" stop-color="rgb(86.39679%, 78.036499%, 94.564819%)" offset="0.515625"/><stop stop-opacity="1" stop-color="rgb(86.64093%, 78.422546%, 94.674683%)" offset="0.53125"/><stop stop-opacity="1" stop-color="rgb(86.886597%, 78.808594%, 94.784546%)" offset="0.546875"/><stop stop-opacity="1" stop-color="rgb(87.132263%, 79.194641%, 94.894409%)" offset="0.5625"/><stop stop-opacity="1" stop-color="rgb(87.376404%, 79.580688%, 95.005798%)" offset="0.578125"/><stop stop-opacity="1" stop-color="rgb(87.62207%, 79.966736%, 95.115662%)" offset="0.59375"/><stop stop-opacity="1" stop-color="rgb(87.867737%, 80.352783%, 95.225525%)" offset="0.609375"/><stop stop-opacity="1" stop-color="rgb(88.111877%, 80.738831%, 95.336914%)" offset="0.625"/><stop stop-opacity="1" stop-color="rgb(88.357544%, 81.124878%, 95.446777%)" offset="0.640625"/><stop stop-opacity="1" stop-color="rgb(88.60321%, 81.510925%, 95.556641%)" offset="0.65625"/><stop stop-opacity="1" stop-color="rgb(88.847351%, 81.896973%, 95.66803%)" offset="0.671875"/><stop stop-opacity="1" stop-color="rgb(89.093018%, 82.28302%, 95.777893%)" offset="0.6875"/><stop stop-opacity="1" stop-color="rgb(89.338684%, 82.669067%, 95.887756%)" offset="0.703125"/><stop stop-opacity="1" stop-color="rgb(89.582825%, 83.055115%, 95.99762%)" offset="0.71875"/><stop stop-opacity="1" stop-color="rgb(89.828491%, 83.441162%, 96.109009%)" offset="0.734375"/><stop stop-opacity="1" stop-color="rgb(90.074158%, 83.827209%, 96.218872%)" offset="0.75"/><stop stop-opacity="1" stop-color="rgb(90.318298%, 84.214783%, 96.328735%)" offset="0.765625"/><stop stop-opacity="1" stop-color="rgb(90.563965%, 84.60083%, 96.440125%)" offset="0.78125"/><stop stop-opacity="1" stop-color="rgb(90.809631%, 84.986877%, 96.549988%)" offset="0.796875"/><stop stop-opacity="1" stop-color="rgb(91.053772%, 85.372925%, 96.659851%)" offset="0.8125"/><stop stop-opacity="1" stop-color="rgb(91.299438%, 85.758972%, 96.769714%)" offset="0.828125"/><stop stop-opacity="1" stop-color="rgb(91.545105%, 86.14502%, 96.881104%)" offset="0.84375"/><stop stop-opacity="1" stop-color="rgb(91.789246%, 86.531067%, 96.990967%)" offset="0.859375"/><stop stop-opacity="1" stop-color="rgb(92.034912%, 86.917114%, 97.10083%)" offset="0.875"/><stop stop-opacity="1" stop-color="rgb(92.280579%, 87.303162%, 97.212219%)" offset="0.890625"/><stop stop-opacity="1" stop-color="rgb(92.524719%, 87.689209%, 97.322083%)" offset="0.90625"/><stop stop-opacity="1" stop-color="rgb(92.770386%, 88.075256%, 97.431946%)" offset="0.921875"/><stop stop-opacity="1" stop-color="rgb(93.016052%, 88.461304%, 97.543335%)" offset="0.9375"/><stop stop-opacity="1" stop-color="rgb(93.260193%, 88.847351%, 97.653198%)" offset="0.953125"/><stop stop-opacity="1" stop-color="rgb(93.505859%, 89.233398%, 97.763062%)" offset="0.96875"/><stop stop-opacity="1" stop-color="rgb(93.751526%, 89.619446%, 97.872925%)" offset="0.984375"/><stop stop-opacity="1" stop-color="rgb(93.995667%, 90.005493%, 97.984314%)" offset="1"/></linearGradient><mask id="91929c739d"><g filter="url(#b235c51724)"><rect x="-144" width="1728" fill="#000000" y="-80.999999" height="971.999992" fill-opacity="0.26"/></g></mask><clipPath id="f043f67a4a"><path d="M 0 0 L 1440 0 L 1440 660.984375 L 0 660.984375 Z M 0 0 " clip-rule="nonzero"/></clipPath><clipPath id="f6761c58af"><path d="M 0 0 L 1440 0 L 1440 660.398438 L 0 660.398438 Z M 0 0 " clip-rule="nonzero"/></clipPath><clipPath id="f2e155cc9a"><rect x="0" width="1440" y="0" height="661"/></clipPath><clipPath id="0349bf4bf3"><rect x="0" width="1440" y="0" height="662"/></clipPath></defs><rect x="-144" width="1728" fill="#ffffff" y="-80.999999" height="971.999992" fill-opacity="1"/><rect x="-144" fill="url(#34ae515280)" width="1728" y="-80.999999" height="971.999992"/><g mask="url(#91929c739d)"><g transform="matrix(1, 0, 0, 1, 0, 0.000000000000039746)"><g clip-path="url(#0349bf4bf3)"><g clip-path="url(#f043f67a4a)"><g transform="matrix(1, 0, 0, 1, 0, 0.000000000000039746)"><g clip-path="url(#f2e155cc9a)"><g clip-path="url(#f6761c58af)"><path fill="#8c52ff" d="M 774.988281 -798.457031 C 775.917969 -822.601562 754.753906 -840.574219 731.996094 -841.453125 C 707.851562 -842.378906 689.878906 -821.214844 689 -798.457031 C 691.132812 -743.007812 772.84375 -743.007812 774.988281 -798.457031 Z M 111.460938 64.101562 C 112.429688 82.023438 138.257812 82.023438 139.226562 64.101562 C 140.195312 46.179688 112.429688 46.269531 111.460938 64.101562 Z M 475.226562 -212.605469 C 476.191406 -194.695312 502.023438 -194.695312 502.988281 -212.605469 C 503.945312 -230.539062 476.179688 -230.433594 475.226562 -212.605469 Z M 935.511719 10.832031 C 936.476562 28.742188 962.308594 28.742188 963.273438 10.832031 C 964.242188 -7.101562 936.464844 -6.996094 935.511719 10.832031 Z M 935.511719 164.765625 C 936.476562 182.6875 962.308594 182.6875 963.273438 164.765625 C 964.242188 146.832031 936.464844 146.9375 935.511719 164.765625 Z M 1305.105469 -68.410156 C 1306.070312 -50.488281 1331.902344 -50.488281 1332.867188 -68.410156 C 1333.835938 -86.34375 1306.070312 -86.238281 1305.105469 -68.410156 Z M -32.980469 -342.445312 C -30.957031 -382.226562 4.808594 -392.042969 36.820312 -401.871094 C 87.332031 -417.375 138.441406 -430.929688 189.894531 -442.945312 C 361.917969 -483.085938 538.609375 -503.203125 715.261719 -504.054688 C 715.261719 -576.25 715.261719 -648.445312 715.261719 -720.640625 C 715.261719 -721.609375 715.355469 -722.511719 715.484375 -723.398438 C 682.480469 -730.277344 658.703125 -761.152344 655.785156 -794.601562 C 655.578125 -795.804688 655.484375 -797.085938 655.539062 -798.457031 C 655.472656 -800.054688 655.628906 -801.515625 655.902344 -802.875 C 659.523438 -843.398438 690.726562 -873.320312 731.996094 -874.914062 C 774.726562 -876.5625 806.898438 -838.746094 808.453125 -798.457031 C 809.863281 -761.609375 781.929688 -732.628906 748.359375 -724.355469 C 748.597656 -723.191406 748.726562 -721.949219 748.726562 -720.640625 C 748.726562 -648.417969 748.726562 -576.210938 748.726562 -504.003906 C 771.484375 -503.792969 794.242188 -503.335938 816.988281 -502.484375 C 962.242188 -497.101562 1107.679688 -478.957031 1249.328125 -446.171875 C 1284.398438 -438.054688 1319.195312 -428.761719 1353.71875 -418.578125 C 1372.109375 -413.152344 1390.371094 -407.324219 1408.554688 -401.269531 C 1423.601562 -396.277344 1439.875 -391.664062 1452.476562 -381.6875 C 1497.390625 -346.121094 1462.828125 -270.527344 1407.601562 -283.152344 C 1406.265625 -283.324219 1404.894531 -283.664062 1403.441406 -284.226562 C 1402.671875 -284.460938 1401.964844 -284.734375 1401.285156 -285.035156 C 1376.921875 -294.410156 1352.253906 -302.789062 1327.351562 -310.34375 C 1327.351562 -242.488281 1327.351562 -174.632812 1327.351562 -106.773438 C 1344.90625 -103.273438 1357.023438 -85.976562 1357.964844 -68.410156 C 1358.984375 -49.496094 1344.359375 -35.089844 1327.351562 -30.75 C 1327.351562 25.132812 1327.351562 81.015625 1327.351562 136.898438 C 1328.867188 138.0625 1330.214844 139.667969 1331.273438 141.8125 C 1339.71875 158.9375 1348.175781 176.058594 1356.621094 193.183594 C 1375.730469 195.957031 1394.828125 198.738281 1413.925781 201.511719 C 1424.816406 203.09375 1427.183594 218.492188 1420.203125 225.277344 C 1406.738281 238.414062 1393.261719 251.550781 1379.796875 264.675781 C 1382.867188 282.660156 1385.953125 300.636719 1389.039062 318.609375 C 1391.144531 330.84375 1379.863281 340.832031 1368.148438 334.675781 C 1351.757812 326.058594 1335.378906 317.445312 1318.984375 308.832031 C 1302.59375 317.445312 1286.214844 326.058594 1269.824219 334.675781 C 1258.125 340.832031 1246.84375 330.84375 1248.933594 318.609375 C 1252.019531 300.636719 1255.105469 282.660156 1258.1875 264.675781 C 1244.710938 251.550781 1231.234375 238.414062 1217.769531 225.277344 C 1210.804688 218.492188 1213.167969 203.09375 1224.046875 201.511719 C 1243.144531 198.738281 1262.253906 195.957031 1281.351562 193.183594 C 1289.808594 176.058594 1298.253906 158.9375 1306.710938 141.8125 C 1307.769531 139.667969 1309.117188 138.0625 1310.621094 136.898438 C 1310.621094 81.25 1310.621094 25.605469 1310.621094 -30.042969 C 1294.320312 -33.285156 1282.710938 -48.449219 1280.371094 -64.65625 C 1280.109375 -65.808594 1279.925781 -67.023438 1280.003906 -68.410156 C 1279.925781 -69.769531 1280.097656 -70.957031 1280.359375 -72.09375 C 1282.644531 -89.363281 1294.214844 -102.1875 1310.621094 -106.160156 C 1310.621094 -175.871094 1310.621094 -245.585938 1310.621094 -315.308594 C 1241.992188 -335.085938 1171.691406 -349.0625 1101.273438 -361.101562 C 1053.640625 -369.257812 1005.773438 -375.714844 957.757812 -380.683594 C 957.757812 -262.96875 957.757812 -145.257812 957.757812 -27.546875 C 975.300781 -24.042969 987.417969 -6.734375 988.371094 10.832031 C 989.394531 29.746094 974.765625 44.140625 957.757812 48.492188 C 957.757812 74.453125 957.757812 100.425781 957.757812 126.402344 C 975.300781 129.902344 987.417969 147.199219 988.371094 164.765625 C 989.394531 183.679688 974.765625 198.085938 957.757812 202.425781 C 957.757812 229.941406 957.757812 257.457031 957.757812 284.976562 C 957.757812 287.417969 956.871094 289.277344 955.550781 290.609375 C 972.320312 293.941406 988.910156 299.5625 1004.894531 307.589844 C 1066.855469 338.699219 1104.386719 405.210938 1105.3125 473.484375 C 1106.230469 541.183594 1066.933594 604.230469 1008.777344 637.300781 C 941.445312 675.574219 857.875 664.503906 798.375 617.261719 C 785.640625 607.167969 797.539062 589.902344 810.203125 588.699219 C 869.902344 583.050781 914.515625 532.882812 915.5625 473.484375 C 914.515625 414.085938 869.902344 363.914062 810.203125 358.269531 C 797.539062 357.066406 785.65625 339.8125 798.375 329.707031 C 840.152344 296.53125 891.328125 282.203125 941.707031 288.386719 C 941.273438 287.40625 941.027344 286.269531 941.027344 284.976562 C 941.027344 257.695312 941.027344 230.414062 941.027344 203.132812 C 924.726562 199.890625 913.105469 184.726562 910.777344 168.519531 C 910.503906 167.367188 910.335938 166.152344 910.414062 164.765625 C 910.335938 163.40625 910.503906 162.21875 910.765625 161.082031 C 913.054688 143.8125 924.621094 130.988281 941.027344 127.015625 C 941.027344 101.066406 941.027344 75.132812 941.027344 49.199219 C 924.726562 45.941406 913.105469 30.792969 910.777344 14.570312 C 910.503906 13.421875 910.335938 12.203125 910.414062 10.832031 C 910.335938 9.472656 910.503906 8.269531 910.765625 7.144531 C 913.054688 -10.121094 924.621094 -22.957031 941.027344 -26.933594 C 941.027344 -145.429688 941.027344 -263.9375 941.027344 -382.433594 C 887.574219 -387.570312 833.941406 -390.773438 780.21875 -392.105469 C 685.8125 -394.445312 591.34375 -390.761719 497.460938 -381.140625 C 497.460938 -338.316406 497.460938 -295.492188 497.460938 -252.667969 C 497.460938 -252.082031 497.394531 -251.546875 497.304688 -251.023438 C 514.9375 -247.597656 527.132812 -230.238281 528.085938 -212.605469 C 529.144531 -192.75 512.976562 -177.871094 494.898438 -174.382812 C 496.441406 -173.035156 497.460938 -171.035156 497.460938 -168.371094 C 497.460938 -113.023438 497.460938 -57.675781 497.460938 -2.34375 C 499.839844 -0.972656 501.96875 1.222656 503.550781 4.425781 C 517.066406 31.800781 530.570312 59.171875 544.074219 86.542969 C 574.53125 90.976562 604.976562 95.394531 635.433594 99.8125 C 648.230469 101.683594 651.015625 119.785156 642.804688 127.785156 C 621.183594 148.859375 599.5625 169.929688 577.941406 191 C 582.9375 220.097656 587.929688 249.199219 592.921875 278.28125 C 595.382812 292.675781 582.113281 304.425781 568.335938 297.183594 C 541.929688 283.300781 515.511719 269.417969 489.105469 255.539062 C 462.6875 269.417969 436.269531 283.300781 409.851562 297.183594 C 396.089844 304.425781 382.808594 292.675781 385.277344 278.28125 C 390.269531 249.199219 395.265625 220.097656 400.257812 191 C 378.636719 169.929688 357.015625 148.859375 335.394531 127.785156 C 327.1875 119.785156 329.96875 101.683594 342.78125 99.8125 C 373.226562 95.394531 403.683594 90.976562 434.128906 86.542969 C 447.644531 59.171875 461.144531 31.800781 474.664062 4.425781 C 476.230469 1.222656 478.347656 -0.957031 480.726562 -2.332031 C 480.726562 -57.675781 480.726562 -113.023438 480.726562 -168.371094 C 480.726562 -170.761719 481.578125 -172.589844 482.859375 -173.925781 C 465.460938 -176.226562 452.925781 -191.949219 450.492188 -208.867188 C 450.21875 -210.015625 450.046875 -211.230469 450.125 -212.605469 C 450.046875 -213.964844 450.21875 -215.167969 450.480469 -216.304688 C 452.78125 -233.664062 464.464844 -246.550781 481.027344 -250.449219 C 480.84375 -251.128906 480.726562 -251.859375 480.726562 -252.667969 C 480.726562 -294.878906 480.726562 -337.074219 480.726562 -379.285156 C 366.257812 -366.683594 252.753906 -345.363281 141.515625 -315.347656 C 138.914062 -314.65625 136.3125 -313.925781 133.710938 -313.207031 C 133.710938 -200.226562 133.710938 -87.246094 133.710938 25.734375 C 151.253906 29.222656 163.382812 46.53125 164.324219 64.101562 C 165.34375 83.027344 150.714844 97.421875 133.710938 101.761719 C 133.710938 170.726562 133.710938 239.679688 133.710938 308.648438 C 182.324219 311.902344 218.898438 355.628906 220.273438 403.378906 C 221.800781 456.125 175.800781 496.855469 125.34375 498.308594 C 73.605469 499.8125 33.460938 455.574219 30.574219 406.269531 C 30.457031 405.355469 30.378906 404.398438 30.417969 403.378906 C 30.378906 402.386719 30.457031 401.445312 30.558594 400.542969 C 33.277344 351.980469 69.277344 314.296875 116.976562 309.066406 C 116.976562 240.191406 116.976562 171.339844 116.976562 102.480469 C 100.675781 99.222656 89.070312 84.074219 86.742188 67.851562 C 86.46875 66.703125 86.285156 65.484375 86.363281 64.101562 C 86.296875 62.753906 86.457031 61.550781 86.730469 60.414062 C 89.003906 43.160156 100.574219 30.324219 116.976562 26.363281 C 116.976562 -85.273438 116.976562 -196.917969 116.976562 -308.539062 C 100.3125 -303.820312 83.710938 -298.917969 67.136719 -293.871094 C 47.382812 -287.847656 28.992188 -279.546875 8.101562 -282.8125 C -18.890625 -287.023438 -34.25 -317.609375 -32.980469 -342.445312 " fill-opacity="1" fill-rule="nonzero"/></g></g></g></g></g></g></g></svg>