<?xml version='1.0' encoding='utf-8'?>
<svg xmlns="http://www.w3.org/2000/svg" enable-background="new 0 0 841.89 595.28" version="1.1" viewBox="0 0 841.89 595.28"> <path d="m492.67 133.16c0.667-13.333 28.667-22 40.667-15.333 19.333 11.333 16 48-6 54.666" fill="#C49A6C"/> <path d="m494.13 133.03c0.876-9.333 12.089-13.715 19.912-15.568 9.831-2.329 19.145-0.619 25.288 7.812 10.349 14.201 5.495 40.502-12.237 46.32-1.725 0.565-1.273 2.383 0.484 1.807 20.281-6.653 25.882-34.947 13.206-50.951-6.708-8.47-17.417-8.852-27.225-6.794-8.752 1.836-21.389 7.378-22.353 17.644-0.13 1.396 2.812 0.928 2.925-0.27z"/> <path d="m380.84 118.02c0.667-22.667-30-33.333-46.667-22-20.667 14-11.333 37.333 8 46.667" fill="#C49A6C"/> <path d="m382.28 117.64c0.126-21.627-25.159-30.766-43.028-24.701-9.656 3.277-17.563 12.026-18.204 22.358-0.766 12.344 9.565 22.746 19.747 27.874 0.73 0.368 2.97-0.837 2.739-0.953-9.031-4.548-16.57-12.029-19.052-22.054-2.714-10.964 4.465-21.401 14.136-26.035 17-8.144 40.876 5.155 40.764 24.287-2e-3 0.363 2.893-0.014 2.898-0.776z"/> <path d="m341.67 275.81c-7.705-18.652-87.334 21.535-64.667 69.535 4.831 10.23 22.667 14 34 14 14.667 0 20-16 26-28.666 5.333-11.334 16.667-50.667 3.334-59.334" fill="#C49A6C"/> <path d="m358.33 264.68c-16.666-3.481-26.761 24.666-28.667 35.333-4.42 24.738-12.666 55.333-10.666 80.667 2 26.666 21.333 61.333 46 70 24 8.666 53.333 7.333 79.333 6 9.333-0.667 22.667 0 31.333-4.667 10.667-6 21.334-24.667 27.334-36 6-10.667 11.333-22.667 14-34 2-11.333-2-20-1.334-30.667 7.334 0 11.334 6.667 18.667 6.667 6 0 14-6 18.667-10 12-9.333 18-20 14.666-34.667-6.666-28-31.333-46-59.333-46-27.333 0-53.333 0.667-80.667-2-22.666-2.666-50-6.666-72-2" fill="#C49A6C"/> <path d="m370.84 122.36c-9.333-24-39.333 4.667-20.667 10.667" fill="#8B5E3C"/> <path d="m372.28 121.97c-4.123-10.011-13.578-12.143-22.394-6.424-6.978 4.526-10.763 14.674-0.892 18.12 0.771 0.269 3.404-0.908 2.339-1.28-7.855-2.742-6.343-10.222-1.167-14.985 7.346-6.76 15.703-3.181 19.214 5.346 0.365 0.88 3.21-0.026 2.9-0.777z"/> <path d="m506.14 138.95c17.333-20.667 36 0.667 16 16.667" fill="#754C29"/> <path d="m507.46 138.85c3.229-3.729 7.49-7.837 12.762-7.83 3.322 4e-3 6.213 2.026 7.836 4.819 4.194 7.217-1.854 15.426-7.227 19.875-0.646 0.534 2.085 0.253 2.629-0.197 6.55-5.423 13.371-16.748 4.756-23.661-7.623-6.116-18.388 1.421-23.385 7.191-0.616 0.71 2.167 0.336 2.629-0.197z"/> <path d="m338.17 150.93c-4.59 0-12.049 13.197-14.344 18.361-5.738 14.917-5.164 34.426-1.148 49.916 10.901 39.59 46.475 64.262 85.492 71.146 67.704 11.477 170.98-48.77 121.06-125.08-22.951-34.999-59.672-47.622-99.835-51.064-29.836-2.295-70 0.574-87.212 28.114-3.442 5.164-5.164 10.901-8.032 16.065" fill="#C49A6C"/> <path d="m338.28 149.8c-7.128 0.848-11.833 11.351-14.706 16.904-5.65 10.926-6.028 24.654-5.085 36.636 1.835 23.333 12.921 44.369 30.033 60.122 31.132 28.659 75.635 35.068 115.29 23.733 33.304-9.52 69.398-32.302 78.38-67.911 10.851-43.018-27.785-82.219-64.75-96.231-25.843-9.796-55.715-12.721-83.099-9.477-12.82 1.519-25.61 5.003-36.661 11.825-5.259 3.246-9.857 7.39-13.734 12.19-5.005 6.197-7.496 13.65-11.188 20.594-0.795 1.495 2.148 1.607 2.789 0.402 3.191-6.002 5.45-12.318 9.309-17.969 3.292-4.821 7.622-8.808 12.353-12.177 9.594-6.831 21.427-10.199 32.916-12.053 22.85-3.687 47.112-1.575 69.517 3.779 24.576 5.873 46.99 18.367 62.877 38.258 13.056 16.345 21.17 36.977 17.382 58.011-7.017 38.959-49.545 62.479-84.707 70.729-43.466 10.197-92.558-4.225-118.72-41.768-10.052-14.421-14.913-31.469-15.39-48.938-0.248-9.09 0.649-19.333 4.469-27.688 1.355-2.965 3.02-5.805 4.765-8.554 1.544-2.433 4.536-7.781 7.746-8.164 1.653-0.196 2.183-2.488 0.219-2.253z"/> <path d="m412.2 212.86c-25.17 1.067-42.55 20.282-35.358 41.633 8.391 25.087 56.334 25.62 79.107 19.216 26.368-8.007 24.57-33.627 7.191-48.572-17.379-14.411-34.16-16.546-55.734-12.276" fill="#C4B37B"/> <path d="m413.15 212.31c-18.164 1.037-37.805 11.254-39.354 31.334-1.538 19.941 16.982 29.231 33.691 32.393 16.433 3.108 35.788 2.697 51.658-3.001 7.875-2.827 14.671-8.313 17.331-16.43 2.681-8.177-0.219-17.062-4.771-23.951-13.996-21.182-41.15-24.645-64.015-20.271-1.093 0.209-2.617 1.324-0.576 0.934 14.147-2.707 28.078-2.718 41.311 3.521 10.288 4.852 19.616 12.805 24.05 23.442 3.487 8.364 2.567 17.796-3.262 24.827-7.198 8.684-20.045 10.189-30.574 11.099-17.94 1.55-41.633 0.306-55.075-13.384-7.077-7.209-8.422-18.684-5.207-27.929 4.404-12.664 17.573-19.832 30.214-21.308 0.891-0.064 1.782-0.13 2.673-0.194 0.537-0.03 3.254-1.159 1.906-1.082z"/> <path d="m410.4 244.35c1.798 3.203 4.195 10.142 9.589 12.277 8.39 3.735 19.178-4.271 19.178-13.345-8.391-3.736-20.976-1.066-29.965 1.067" fill="#3C2415"/> <path d="m408.95 244.74c3.597 6.735 7.538 14.931 16.736 13.392 7.775-1.302 14.49-7.021 14.929-15.236-0.052-0.122-0.143-0.2-0.274-0.232-9.926-3.952-21.304-1.228-31.292 1.121-1.731 0.407-1.408 1.537 0.305 1.135 5.303-1.247 10.605-2.333 16.047-2.734 3.351-0.246 6.69-1e-3 9.956 0.785 3.36 0.81 1.86 4.302 0.855 6.435-3.229 6.849-11.934 9.632-17.945 4.749-3.122-2.536-4.578-6.742-6.418-10.19-0.448-0.84-3.222 0.169-2.899 0.775z" fill="#3C2415"/> <path d="m421.53 257.33c-1e-3 3.654-0.041 7.313-0.854 10.893-1.349 5.928-5.469 7.627-11.197 6.271-0.964-0.229-3.426 1.231-1.76 1.625 5.017 1.188 10.313 0.938 13.731-3.365 3.319-4.178 2.981-10.759 2.982-15.767 2e-3 -1.259-2.902-0.652-2.902 0.343z"/> <path d="m420.94 264.48c1.689 9.783 10.84 13.236 19.79 11.478 1.24-0.244 2.487-1.71 0.475-1.314-8.299 1.632-15.876-2.305-17.366-10.94-0.137-0.783-3.052-0.109-2.899 0.776z"/> <path d="m390.62 204.32c4.794 7.473 8.39-5.337 0.6-0.533" fill="#3C2415"/> <path d="m389.29 204.92c0.851 1.312 1.956 2.451 3.557 2.701 1.416 0.221 2.848-0.486 3.7-1.588 0.546-0.704 0.791-1.661 0.64-2.539-0.192-1.119-1.251-1.659-2.292-1.739-1.634-0.126-3.244 0.672-4.596 1.497-0.459 0.28-0.806 0.954-0.209 1.298 0.632 0.364 1.488 0.124 2.064-0.228 0.101-0.062 0.203-0.122 0.305-0.183 0.332-0.194-0.26 0.137 0.066-0.037 0.178-0.095 0.359-0.183 0.544-0.266 0.116-0.053 0.709-0.269 0.199-0.093 0.168-0.059 0.341-0.104 0.516-0.144 0.276-0.063-0.396 0.065-0.126 0.025 0.063-0.01 0.126-0.015 0.188-0.021 0.251-0.021-0.377-1e-3 -0.134 0 0.055 0 0.109 4e-3 0.164 9e-3 0.299 0.022-0.333-0.087 0.016 9e-3 0.085 0.023 0.265 0.1-0.1-0.049 0.054 0.021 0.104 0.05 0.155 0.078 0.036 0.021 0.07 0.045 0.105 0.068 0.142 0.1-0.201-0.174-0.074-0.059 0.06 0.055 0.11 0.117 0.158 0.182 0.024 0.032 0.046 0.066 0.066 0.101 0.087 0.141-0.107-0.219-0.037-0.068 0.041 0.087 0.07 0.179 0.095 0.271 0.022 0.082 0.035 0.166 0.046 0.25 0.037 0.285 9e-3 -0.159 6e-3 0.065-2e-3 0.197-0.034 0.394-0.081 0.584-0.021 0.091-0.051 0.18-0.081 0.268 0.119-0.342 2e-3 -0.021-0.037 0.061-0.041 0.084-0.088 0.165-0.137 0.245-0.025 0.04-0.052 0.078-0.078 0.117-0.153 0.222 0.157-0.191 0.038-0.049-0.059 0.07-0.124 0.136-0.19 0.199-0.205 0.193 0.299-0.214 8e-3 -0.013-0.305 0.211 0.314-0.148 0.047-0.023-0.254 0.119 0.459-0.117 0.03-0.018 0.77-0.179-0.325-0.035 0.386-0.041-0.124 1e-3 -0.494-0.068-0.023 0.018-0.108-0.02-0.214-0.053-0.317-0.089-0.21-0.072 0.262 0.115 0.054 0.021-0.076-0.035-0.15-0.076-0.224-0.118-0.12-0.068-0.234-0.148-0.346-0.23-0.203-0.149 0.165 0.144-0.035-0.027-0.062-0.053-0.121-0.108-0.18-0.163-0.298-0.28-0.559-0.6-0.802-0.927-0.135-0.181-0.259-0.367-0.381-0.556-0.609-0.94-3.407 0.069-2.673 1.201z"/> <path d="m458.34 205.38c-1.199 1.068-2.997 0.534-0.6 3.203 3.596 4.27 8.989-9.074-1.798-3.736" fill="#3C2415"/> <path d="m457.38 204.72c-0.097 0.083-0.196 0.158-0.301 0.231 0.269-0.187-0.04 0.017-0.092 0.043-0.187 0.097-0.379 0.18-0.565 0.274-0.582 0.294-1.197 0.752-1.315 1.438-0.199 1.161 1.146 2.486 1.962 3.146 1.549 1.253 3.716 0.544 5.02-0.679 0.992-0.932 1.725-2.427 1.694-3.805-0.038-1.756-1.373-2.818-3.091-2.854-1.898-0.041-3.708 0.657-5.39 1.479-0.512 0.251-1.127 0.901-0.685 1.49 0.436 0.58 1.395 0.495 1.968 0.215 0.524-0.257 1.293-0.595 1.641-0.715 0.278-0.096 0.561-0.176 0.845-0.247 0.127-0.032 0.256-0.058 0.384-0.083-0.37 0.073 0.011 6e-3 0.077-2e-3 0.097-0.012 0.681-0.023 0.254-0.033 0.111 3e-3 0.687 0.098 0.278 5e-3 0.106 0.024 0.56 0.224 0.213 0.046 0.12 0.062 0.229 0.144 0.332 0.232-0.263-0.227-0.013 0.013 0.044 0.092 0.203 0.284-0.013-0.097 0.081 0.149 0.047 0.123 0.075 0.253 0.099 0.383 0.063 0.35 0.017-0.068 0.017 0.206-1e-3 0.297-0.053 0.592-0.124 0.878-0.064 0.26 0.078-0.236-5e-3 0.021-0.023 0.074-0.052 0.147-0.079 0.221-0.056 0.147-0.122 0.291-0.191 0.433-0.059 0.118-0.124 0.232-0.191 0.345-0.158 0.267 0.109-0.133-0.136 0.19-0.093 0.121-0.194 0.235-0.299 0.346-0.232 0.244 0.209-0.157-0.131 0.11-0.056 0.044-0.114 0.084-0.174 0.124-0.227 0.155 0.319-0.18 0.081-0.051-0.409 0.222 0.28-0.064-0.058 0.034-0.339 0.1 0.399-0.018-0.055-2e-3 0.446-0.016 0.234 6e-3 0.112-8e-3 -0.253-0.031 0.323 0.089 0.073 0.018-0.044-0.014-0.088-0.029-0.131-0.046-0.241-0.09 0.252 0.143 0.02 0.013-0.141-0.077-0.267-0.179-0.388-0.283 0.211 0.182-0.011-0.021-0.044-0.057-0.142-0.155-0.278-0.317-0.415-0.478-0.247-0.289-0.474-0.595-0.662-0.926 0.057 0.101-0.036-0.175-0.035-0.17 0.037 0.166-0.046 0.261-0.137 0.391-0.182 0.262 0.02 0.019-0.258 0.182 0.083-0.048 0.171-0.089 0.257-0.13 0.497-0.241 0.996-0.488 1.422-0.847 0.459-0.389 0.777-1.07 0.156-1.495-0.581-0.398-1.554-0.267-2.078 0.176z"/> <path d="m367.09 457.94c29.373 1.86 58.741 3.915 88.158 4.972 0.972 0.035 3.126-1.389 1.176-1.459-29.203-1.049-58.358-3.089-87.52-4.935-0.781-0.049-3.373 1.324-1.814 1.422z"/> <path d="m314.33 307.34c-19.333 10-26 61.333 6 53.333 14-3.333 16.667-22 16.667-34s-9.333-29.333-22.667-16.666" fill="#C4B37B"/> <path d="m313.46 307c-16.66 9.07-27.958 54.09-0.418 55.26 18.102 0.768 24.377-16.362 25.293-31.569 0.485-8.055-0.966-16.442-6.681-22.513-5.504-5.846-13.329-2.906-18.461 1.666-1.212 1.08 1.669 0.894 2.288 0.342 8.744-7.79 15.402-0.917 18.504 7.719 2.294 6.387 1.721 13.468 0.773 20.055-0.995 6.921-3.312 14.209-8.621 19.029-4.831 4.386-13.544 5.121-19.1 1.713-8.212-5.038-8.183-17.369-6.812-25.63 1.566-9.431 6.188-20.584 14.988-25.376 1.712-0.932-0.904-1.159-1.753-0.696z"/> <path d="m306.78 359.84c-8.071-5.657-17.824-8.113-25.906-13.676-11.001-7.57-8.61-22-4.849-32.953 9.531-27.763 37.871-40.802 65.511-40.802 1.659 0 2.221-2.129 0.255-2.129-28.26 0-56.008 12.842-67.537 39.982-4.566 10.752-7.719 25.938 1.462 35.148 7.745 7.769 19.947 9.878 28.831 16.104 1.056 0.742 3.594-0.721 2.233-1.674z"/> <path d="m324.15 303.98c-7.262-3.47-23.877-9.002-29.835-0.662-0.766 1.071 2.153 0.813 2.696 0.053 4.406-6.166 19.415-0.585 24.831 2.004 0.845 0.403 3.506-0.822 2.308-1.395z"/> <path d="m494.17 271.6c1.614-1.693 9.066-1.326 11.282-1.521 5.161-0.456 10.299-0.804 15.461-0.171 14.19 1.737 26.1 11.095 35.413 21.341s15.499 27.225 10.828 40.753c-4.292 12.431-19.013 23.501-31.961 24.51-1.448 0.113-2.387 1.816-0.381 1.66 13.398-1.045 25.975-10.533 32.908-21.694 8.971-14.44 1.49-32.91-7.753-45.173-9.516-12.625-24.865-21.988-40.647-23.368-5.547-0.485-11.334 0.247-16.847 0.798-2.756 0.276-8.491 0.098-10.638 2.349-1.186 1.243 1.65 1.233 2.335 0.516z"/> <path d="m521.67 297.34c-23.333 5.333-20 45.333-3.333 56 36 21.333 34.666-42 7.333-53.333-4.667-2-8.667-3.334-13.333 0" fill="#C4B37B"/> <path d="m521.44 296.48c-16.222 4.116-19.758 22.072-16.92 36.511 2.652 13.488 13.761 27.587 29.03 25.48 11.973-1.652 14.265-15.843 13.559-25.658-0.944-13.126-7.635-28.053-20.303-33.57-5.553-2.419-10.137-3.022-15.399 0.219-1.673 1.031 0.793 1.77 1.865 1.109 7.928-4.884 17.777 3.252 22.345 9.192 3.646 4.743 5.929 10.45 7.369 16.214 2.2 8.801 3.165 24.446-6.363 29.667-5.449 2.986-12.363-0.309-17.149-3.068-6.053-3.491-9.45-10.976-11.322-17.359-3.835-13.079-1.919-33.021 13.754-36.998 1.775-0.452 1.301-2.188-0.466-1.739z"/> <path d="m523.17 297.55c5.175-2.456 11.935-3.234 15.257-8.456 0.229-0.359-2.401-0.219-2.859 0.502-2.973 4.671-9.414 5.333-14.075 7.544-1.734 0.823 0.98 0.74 1.677 0.41z"/> <path d="m331.57 455.05c12.017-82.124 65.115-143.59 112.95-100.21 24.53 22.244 39.573 63.008 45.518 108.63" fill="#C4B37B"/> <path d="m333.01 454.83c3.843-25.623 11.535-50.889 24.697-73.317 10.138-17.273 25.648-35.687 46.327-39.685 20.782-4.019 38.741 10.78 50.608 26.142 15.949 20.644 24.439 46.688 29.868 71.878 1.711 7.941 3.012 15.968 4.082 24.019 0.098 0.732 3.016 0.107 2.898-0.777-3.586-26.951-10.147-53.903-22.75-78.148-9.247-17.788-23.191-35.923-42.741-42.805-37.918-13.349-67.344 28.49-80.323 57.767-7.793 17.579-12.693 36.401-15.54 55.383-0.132 0.882 2.755 0.341 2.874-0.457z"/> <path d="m320.71 376.42c-25.333-2.667-29.333 40-21.333 55.333 12.667 23.333 59.334 56 70.667 16 5.333-18 0.667-36-10-51.333-7.333-10.667-31.333-36.667-44.667-20.667" fill="#C49A6C"/> <path d="m321.61 375.68c-15.92-1.313-23.947 12.421-26.474 26.344-1.398 7.708-1.297 15.898 0.444 23.537 1.625 7.122 6.166 13.049 10.936 18.408 10.359 11.639 26.1 23.459 42.402 23.351 19.582-0.131 25.41-22.435 24.69-38.415-0.85-18.864-12.179-35.965-25.833-48.287-9.205-8.307-23.663-16.206-33.739-4.863-0.781 0.879 2.108 0.628 2.678-0.014 8.527-9.6 20.989-0.479 28.359 5.972 7.692 6.731 14.118 14.94 18.86 23.979 6.856 13.066 8.631 28.043 4.665 42.258-2.664 9.55-8.749 17.791-19.4 17.862-9.059 0.061-18.015-4.927-25.244-9.91-7.337-5.059-13.899-11.404-19.25-18.524-9.744-12.965-9.562-31.73-3.692-46.367 3.223-8.037 9.57-14.621 18.793-13.86 0.823 0.065 3.389-1.341 1.805-1.471z"/> <path d="m455.33 460.01c-18-19.334 0.667-56 18.667-68.667 10-8 26-14.667 38.667-8.667 12.666 6 25.333 24 25.333 38 0 32.667-58.667 67.334-82.667 39.334" fill="#C49A6C"/> <path d="m456.66 459.41c-16.158-18.198-2.584-46.734 11.598-61.718 9.156-9.675 22.927-17.487 36.547-16.178 13.279 1.276 23.815 15.37 28.772 26.568 8.869 20.036-5.367 38.877-21.358 49.968-15.255 10.58-39.095 17.577-54.122 2.92-0.497-0.502-0.977-1.023-1.437-1.56-0.771-0.869-3.539 0.229-2.672 1.205 11.468 12.91 29.364 12.24 44.403 6.74 16.297-5.96 32.181-18.799 38.726-35.182 7.579-18.971-6.17-41.664-23.324-50.264-19.306-9.68-42.672 7.335-53.822 22.159-11.482 15.268-20.398 40.31-5.982 56.546 0.771 0.87 3.538-0.227 2.671-1.204z"/> <path d="m315.34 363.71c-0.176 3.701-0.14 7.395 0.088 11.094 0.032 0.518 2.947 0.018 2.897-0.777-0.228-3.698-0.263-7.392-0.088-11.094 0.021-0.427-2.857-0.074-2.897 0.777z"/> <path d="m352.15 263.11c-17.199 7.55-21.331 26.558-27.181 42.587-0.229 0.626 2.582 0.295 2.865-0.482 5.597-15.335 9.48-34.378 26.009-41.634 1.758-0.771-0.962-0.791-1.693-0.471z"/> <path d="m508.88 343.73v0.667c0 0.605 1.362 0.398 1.641 0.324 0.536-0.144 1.258-0.463 1.258-1.102v-0.667c0-0.605-1.362-0.398-1.641-0.324-0.537 0.144-1.258 0.464-1.258 1.102z"/> <path d="m516.66 354.95c0.552 9.532 0.432 18.998-1.184 28.429-0.245 1.437 2.715 1.047 2.934-0.23 1.614-9.431 1.735-18.896 1.184-28.429-0.088-1.506-3.006-1.029-2.934 0.23z"/> <path d="m488.66 408.68c-1.334-6.666-14 8-16.667 10.667-8 10-16.667 31.333-2 40.667 26.667 17.333 64-44.667 29.333-56-4.666-2-10-2-13.333 1.333" fill="#C4B37B"/> <path d="m490.11 408.29c-1.409-4.933-8.705 0.77-10.587 2.358-5.812 4.906-10.81 10.653-14.305 17.414-4.228 8.178-6.877 18.865-1.873 27.264 3.421 5.742 10.909 8.813 17.408 8.21 13.579-1.26 24.088-12.283 29.84-23.925 5.967-12.077 6.646-28.39-7.197-35.029-6.111-2.932-13.27-3.734-18.707 0.9-0.563 0.479 2.104 0.157 2.609-0.273 6.648-5.667 18.143 1.734 21.859 7.699 2.846 4.566 3.091 10.285 2.367 15.463-1.718 12.313-10.089 24.643-20.638 31.073-5.682 3.464-12.089 3.988-18.046 0.964-7.849-3.984-10.087-12.113-8.996-20.271 0.997-7.456 4.884-16.137 10.113-21.611 1.975-2.066 3.919-4.154 5.975-6.143 1.354-1.311 6.302-6.736 7.278-3.315 0.17 0.585 3.061-0.214 2.9-0.778z"/> <path d="m336.04 387.08c-28-11.333-36 31.334-24 48.667 8 10.667 26.667 28 40.667 20.667 14-8 13.333-30.667 8.666-43.334-4.666-12.666-14.667-28.666-28.667-30" fill="#C4B37B"/> <path d="m337.21 386.44c-14.447-5.539-26.147 2.588-30.325 16.706-2.216 7.488-2.221 15.775-0.445 23.344 2.005 8.543 7.908 14.845 14.216 20.624 6.96 6.378 16.055 12.353 25.881 11.697 8.233-0.549 14.092-6.95 16.982-14.206 7.46-18.739-1.96-43.546-16.491-56.215-3.797-3.311-8.433-5.372-13.411-6.013-0.786-0.102-3.39 1.21-1.817 1.412 18.34 2.361 28.999 25.52 30.848 41.888 0.974 8.625-0.122 18.107-5.213 25.352-7.923 11.276-21.173 5.027-29.866-1.484-6.163-4.616-12.775-10.838-16.163-17.857-2.991-6.199-3.641-13.531-3.17-20.307 0.45-6.459 2.32-13.027 6.014-18.388 4.995-7.25 12.775-8.275 20.624-5.266 0.77 0.295 3.415-0.873 2.336-1.287z"/> </svg>